HIERARCHY
ROOT root
{
	OFFSET	0	13.1	24.9
	CHANNELS 6  Xposition Yposition Zposition Xrotation Yrotation Zrotation
	JOINT spine_1
	{
		OFFSET	0	9.99999	0
		CHANNELS 3  Xrotation Yrotation Zrotation
		JOINT spine_2
		{
			OFFSET	0	112	-10
			CHANNELS 3  Xrotation Yrotation Zrotation
			JOINT spine_3
			{
				OFFSET	0	206.5	19.3
				CHANNELS 3  Xrotation Yrotation Zrotation
				JOINT spine_4
				{
					OFFSET	0	110.4	14.6
					CHANNELS 3  Xrotation Yrotation Zrotation
					JOINT neck_1
					{
						OFFSET	0	71.8	-50.3
						CHANNELS 3  Xrotation Yrotation Zrotation
						JOINT neck_2
						{
							OFFSET	0	86.2	-25.8
							CHANNELS 3  Xrotation Yrotation Zrotation
							JOINT head_ee
							{
								OFFSET	0	179.8	-8.7
								CHANNELS 3  Xrotation Yrotation Zrotation
								End Site
								{
									OFFSET	1	0	0
								}
							}
						}
					}
					JOINT left_clavicle
					{
						OFFSET	-43.2	22.4	-70.8
						CHANNELS 3  Xrotation Yrotation Zrotation
						JOINT left_shoulder
						{
							OFFSET	-93.9	-5.79999	48.7
							CHANNELS 3  Xrotation Yrotation Zrotation
							JOINT left_elbow
							{
								OFFSET	-291.4	-30.8	15.2
								CHANNELS 3  Xrotation Yrotation Zrotation
								JOINT left_lowarm_twist
								{
									OFFSET	-110.7	-3.89999	13.6
									CHANNELS 3  Xrotation Yrotation Zrotation
									JOINT left_hand
									{
										OFFSET	-110.7	-3.89999	13.6
										CHANNELS 3  Xrotation Yrotation Zrotation
										JOINT left_ee
										{
											OFFSET	-80.8	-5.10001	12.1
											CHANNELS 3  Xrotation Yrotation Zrotation
											End Site
											{
												OFFSET	1	0	0
											}
										}
									}
								}
							}
						}
					}
					JOINT right_clavicle
					{
						OFFSET	43.2	22.4	-70.8
						CHANNELS 3  Xrotation Yrotation Zrotation
						JOINT right_shoulder
						{
							OFFSET	93.9	-5.79999	48.7
							CHANNELS 3  Xrotation Yrotation Zrotation
							JOINT right_elbow
							{
								OFFSET	291.4	-30.8	15.2
								CHANNELS 3  Xrotation Yrotation Zrotation
								JOINT right_lowarm_twist
								{
									OFFSET	110.7	-3.89999	13.6
									CHANNELS 3  Xrotation Yrotation Zrotation
									JOINT right_hand
									{
										OFFSET	110.7	-3.89999	13.6
										CHANNELS 3  Xrotation Yrotation Zrotation
										JOINT right_ee
										{
											OFFSET	80.8	-5.10001	12.1
											CHANNELS 3  Xrotation Yrotation Zrotation
											End Site
											{
												OFFSET	1	0	0
											}
										}
									}
								}
							}
						}
					}
				}
			}
		}
	}
	JOINT left_hip
	{
		OFFSET	-82.8	-127.5	0.300001
		CHANNELS 3  Xrotation Yrotation Zrotation
		JOINT left_knee
		{
			OFFSET	-28.2	-396.7	2.2
			CHANNELS 3  Xrotation Yrotation Zrotation
			JOINT left_ankle
			{
				OFFSET	-11.7	-411.3	35.4
				CHANNELS 3  Xrotation Yrotation Zrotation
				JOINT left_toes
				{
					OFFSET	0	-60	-88.6
					CHANNELS 3  Xrotation Yrotation Zrotation
					JOINT left_foot_ee
					{
						OFFSET	-22.5	-16.5	-42.2
						CHANNELS 3  Xrotation Yrotation Zrotation
						End Site
						{
							OFFSET	1	0	0
						}
					}
				}
			}
		}
	}
	JOINT right_hip
	{
		OFFSET	82.8	-127.5	0.300001
		CHANNELS 3  Xrotation Yrotation Zrotation
		JOINT right_knee
		{
			OFFSET	28.2	-396.7	2.2
			CHANNELS 3  Xrotation Yrotation Zrotation
			JOINT right_ankle
			{
				OFFSET	11.7	-411.3	35.4
				CHANNELS 3  Xrotation Yrotation Zrotation
				JOINT right_toes
				{
					OFFSET	0	-60	-88.6
					CHANNELS 3  Xrotation Yrotation Zrotation
					JOINT right_foot_ee
					{
						OFFSET	22.5	-16.5	-42.2
						CHANNELS 3  Xrotation Yrotation Zrotation
						End Site
						{
							OFFSET	1	0	0
						}
					}
				}
			}
		}
	}
}
MOTION
Frames: 8
Frame Time: 0.02
1582.73 752.841 -1261.9 11.5854 50.5497 -7.67953 -2.15142 -0.2549 -1.09295 -2.15078 -0.184841 -1.10695 -2.1464 0.0938936 -1.11834 -2.14814 -0.0838943 -1.11913 -6.77835 12.2594 -1.06972 -6.75342 23.5395 1.3946 -0.0 0.0 -0.0 9.37801 16.2541 16.9916 -23.6424 11.9128 60.7681 0.467347 -13.0351 0.0533928 -0.0267986 -0.000945058 0.00329201 0.875015 8.20575 9.11181 -0.0 0.0 -0.0 11.9972 26.4682 -23.3208 -0.212082 27.8118 -47.8452 1.32415 33.2611 -0.395533 52.6703 1.16654 6.39231 -1.53147 -13.7752 3.92445 0.0 0.0 0.0 23.1136 12.1224 -13.8028 -54.5005 -1.6363 7.89234 22.9491 20.235 -3.17537 40.3246 -0.0 -0.0 -0.0 0.0 -0.0 1.00531 -11.3575 -3.99355 -17.9963 -0.314106 -2.73249 14.2422 27.7364 2.44134 27.6656 -0.0 -0.0 0.0 0.0 0.0 
1564.9 750.898 -1266.86 11.4668 50.7212 -7.21518 -2.10304 -0.180852 -1.14587 -2.10231 -0.107575 -1.15506 -2.09934 0.179712 -1.14605 -2.10117 -0.00352783 -1.16005 -7.48531 11.72 -0.776826 -7.50516 22.3908 1.71652 -0.0 0.0 -0.0 9.13234 16.7385 16.5156 -25.0566 12.8016 61.3931 0.471266 -13.1406 0.0542802 0.742414 0.0255663 -0.0913709 0.9788 8.27982 9.8217 -0.0 0.0 -0.0 12.325 26.0085 -24.1233 0.173563 27.6722 -47.0541 1.38244 34.4023 -0.427988 51.6211 1.0873 6.28379 -1.38689 -12.1577 3.75912 0.0 0.0 0.0 26.279 11.7166 -15.7445 -51.9931 -1.40015 7.58661 23.6975 20.2106 -3.26728 40.2506 -0.0 -0.0 -0.0 0.0 -0.0 0.733829 -11.4235 -3.84057 -18.0322 -0.313869 -2.73799 15.2276 27.4382 2.58801 27.9438 -0.0 -0.0 0.0 0.0 0.0 
1546.78 750.587 -1272.62 11.575 50.9437 -7.50513 -1.94514 -0.112443 -1.1789 -1.94437 -0.0372045 -1.18366 -1.94285 0.251812 -1.15717 -1.94471 0.0659117 -1.18241 -7.61726 11.1386 -1.3236 -7.63638 21.7036 1.07117 -0.0 0.0 -0.0 8.45066 18.0051 15.2398 -26.5085 13.4598 62.5476 0.552696 -15.3119 0.0742954 1.43827 0.0484511 -0.177301 1.22299 8.03742 11.3404 -0.0 0.0 -0.0 12.5421 25.8734 -24.6368 0.777241 27.1298 -46.3744 1.43565 35.4175 -0.458438 51.3595 1.06784 6.2565 -0.700654 -8.38528 1.04364 0.0 0.0 0.0 27.8916 11.7595 -16.3108 -44.5866 -0.784042 6.62808 26.1607 22.1594 -3.59621 40.1202 -0.0 -0.0 -0.0 0.0 -0.0 -0.300039 -10.983 -3.15434 -17.914 -0.314635 -2.71988 17.2046 28.1056 2.91798 28.3059 -0.0 -0.0 0.0 0.0 0.0 
1533.28 750.455 -1278.68 12.4211 50.8175 -8.17976 -1.93582 -0.0848798 -1.19819 -1.93502 -0.00846935 -1.20116 -1.93409 0.283769 -1.1672 -1.93598 0.0958847 -1.19736 -7.84624 10.9949 -0.970255 -7.87959 21.2037 1.43373 -0.0 0.0 -0.0 8.5783 17.9255 15.4563 -27.3253 13.8398 62.4565 0.45462 -12.6918 0.0505593 1.77824 0.0592514 -0.219383 1.13062 8.75952 11.0021 -0.0 0.0 -0.0 12.5124 25.5283 -24.6077 1.12875 27.4354 -46.0746 1.49287 36.4814 -0.492029 50.1892 0.982388 6.13339 -1.21083 -9.85778 3.68024 0.0 0.0 0.0 28.6959 11.0502 -17.0362 -43.0004 -0.668601 6.41312 24.4608 20.5773 -3.36566 40.094 -0.0 -0.0 -0.0 0.0 -0.0 -2.1459 -11.1089 -2.74976 -17.7696 -0.315519 -2.69774 16.1816 27.1824 2.72837 28.2142 -0.0 -0.0 0.0 0.0 0.0 
1513.98 756.665 -1291.36 11.4358 50.8646 -6.63891 -1.9988 -0.14883 -1.31845 -1.99784 -0.06464 -1.32525 -1.99537 0.260834 -1.30094 -1.99772 0.0521204 -1.3258 -7.65757 11.878 4.28528 -7.64501 19.1167 6.78581 -0.0 0.0 -0.0 8.16404 20.0478 14.5488 -27.7386 12.8802 62.366 0.525548 -14.5927 0.0672906 3.41127 0.107638 -0.422358 1.499 8.94923 13.5095 -0.0 0.0 -0.0 13.0357 22.5296 -26.1228 -0.0518644 26.8776 -45.1452 1.6652 39.5158 -0.598164 47.9213 0.824046 5.89002 -0.177973 -3.83025 -0.431144 0.0 0.0 0.0 23.469 8.2115 -12.9492 -26.3927 0.165244 4.01118 21.596 25.8887 -3.09286 40.0415 -0.0 -0.0 -0.0 0.0 -0.0 -3.31709 -9.60051 -4.36532 -15.9303 -0.321899 -2.41562 17.0188 26.8603 2.84609 27.3381 -0.0 -0.0 0.0 0.0 0.0 
1497.22 750.967 -1305.83 12.002 49.9506 -6.34067 -2.08456 -0.147873 -1.64477 -2.08306 -0.0429271 -1.65085 -2.08032 0.363805 -1.61084 -2.08393 0.104873 -1.64807 -7.49922 12.4866 6.80623 -7.40727 18.4269 9.37206 -0.0 0.0 -0.0 7.47202 21.1582 13.3673 -29.2836 14.0194 63.4429 0.634298 -17.4435 0.0973084 4.28477 0.131138 -0.531462 1.84486 9.30891 15.9509 -0.0 0.0 -0.0 13.1602 23.1968 -26.3497 1.10196 26.5091 -46.3354 1.72311 40.4798 -0.635385 45.7057 0.678812 5.64647 0.411647 1.62088 -2.07539 0.0 0.0 0.0 20.7879 6.48348 -11.3205 -11.5198 0.300301 1.73942 11.7582 27.6255 -1.76569 39.3692 -0.0 -0.0 -0.0 0.0 -0.0 -5.2608 -7.22175 -5.32661 -15.5732 -0.322088 -2.36083 16.6887 27.439 2.81516 26.7727 -0.0 -0.0 0.0 0.0 0.0 
1469.6 744.837 -1319.95 12.0122 49.5807 -5.90501 -1.92506 -0.116395 -2.03431 -1.92276 0.0132622 -2.03759 -1.92113 0.507863 -1.97335 -1.92652 0.189903 -2.02877 -5.78869 14.6493 8.65352 -5.56402 20.7041 11.3888 -0.0 0.0 -0.0 6.6176 22.0125 12.018 -30.1094 14.7911 64.2655 0.660654 -18.1217 0.105358 5.75216 0.16686 -0.715501 2.1968 10.085 18.6018 -0.0 0.0 -0.0 13.3222 22.4332 -26.7993 0.597361 25.443 -46.5377 1.81958 42.0264 -0.699001 43.7001 0.555576 5.42136 0.861993 5.27065 -3.57967 0.0 0.0 0.0 20.1038 5.19506 -10.8362 -2.27093 0.0868196 0.337675 5.97313 29.517 -0.923722 39.5837 -0.0 -0.0 -0.0 0.0 -0.0 -9.02579 -5.18363 -5.73438 -12.276 -0.307701 -1.85521 18.0266 26.9559 3.00186 26.1321 -0.0 -0.0 0.0 0.0 0.0 
1450.46 741.362 -1327.75 12.3576 51.0679 -4.96906 -1.81062 -0.361851 -2.63409 -1.80678 -0.193564 -2.65176 -1.79399 0.450597 -2.62038 -1.80357 0.031254 -2.65863 -6.04888 15.7688 9.04851 -5.8089 22.5715 12.0234 -0.0 0.0 -0.0 6.65181 24.3433 11.8703 -29.6673 12.0362 63.5594 0.626679 -17.2465 0.0950371 6.28529 0.178669 -0.78258 2.37714 11.6371 20.3543 -0.0 0.0 -0.0 13.3305 21.4802 -26.9022 0.940722 24.4092 -45.9317 1.72504 40.5115 -0.636638 42.5479 0.488379 5.29016 1.72999 11.8936 -6.61893 0.0 0.0 0.0 19.5741 3.22407 -10.8321 3.98979 -0.184741 -0.584166 4.13775 28.8557 -0.640075 38.5828 -0.0 -0.0 -0.0 0.0 -0.0 -11.5034 -3.28794 -7.32637 -9.77127 -0.277344 -1.47212 22.9233 25.967 3.66958 25.0171 -0.0 -0.0 0.0 0.0 0.0 
